<?xml version="1.0" standalone="no"?>
<!DOCTYPE svg PUBLIC "-//W3C//DTD SVG 20010904//EN"
 "http://www.w3.org/TR/2001/REC-SVG-20010904/DTD/svg10.dtd">
<svg version="1.0" xmlns="http://www.w3.org/2000/svg"
 width="512.000000pt" height="512.000000pt" viewBox="0 0 512.000000 512.000000"
 preserveAspectRatio="xMidYMid meet">

<g transform="translate(0.000000,512.000000) scale(0.100000,-0.100000)"
fill="#43C775" stroke="none">
<path d="M567 4944 c-197 -47 -345 -197 -392 -396 -22 -93 -22 -1163 0 -1256
48 -202 198 -351 400 -397 61 -14 149 -15 655 -13 582 3 585 3 649 26 174 63
304 207 346 383 22 96 22 1159 -1 1257 -46 200 -195 349 -396 397 -90 21
-1173 21 -1261 -1z"/>
<path d="M3287 4944 c-197 -47 -345 -197 -392 -396 -22 -93 -22 -1163 0 -1256
48 -202 198 -351 400 -397 61 -14 149 -15 655 -13 582 3 585 3 649 26 174 63
304 207 346 383 22 96 22 1159 -1 1257 -46 200 -195 349 -396 397 -90 21
-1173 21 -1261 -1z"/>
<path d="M567 2224 c-197 -47 -345 -197 -392 -396 -22 -93 -22 -1163 0 -1256
48 -202 198 -351 400 -397 61 -14 149 -15 655 -13 582 3 585 3 649 26 174 63
304 207 346 383 22 96 22 1159 -1 1257 -46 200 -195 349 -396 397 -90 21
-1173 21 -1261 -1z"/>
<path d="M3765 2230 c-90 -14 -220 -57 -310 -102 -254 -127 -443 -350 -528
-623 -187 -598 206 -1229 828 -1330 696 -114 1304 494 1190 1190 -67 415 -365
738 -780 846 -92 23 -304 34 -400 19z"/>
</g>
</svg>
